<svg width="1024" height="1024" viewBox="0 0 1024 1024" fill="none" xmlns="http://www.w3.org/2000/svg">
<path d="M1024 203H442.502C411.417 149.199 353.32 113 286.777 113C187.489 113 107 193.589 107 293C107 392.411 187.489 473 286.777 473C353.32 473 411.417 436.801 442.502 383H1024V1024H0V817H581.498C612.583 870.801 670.68 907 737.223 907C836.511 907 917 826.411 917 727C917 627.589 836.511 547 737.223 547C670.68 547 612.583 583.199 581.498 637H0V0H1024V203Z" fill="white"/>
<path d="M737.223 637C786.867 637 827.111 677.294 827.111 727C827.111 776.706 786.867 817 737.223 817C687.578 817 647.334 776.706 647.334 727C647.334 677.294 687.578 637 737.223 637Z" fill="white"/>
<path d="M286.777 203C336.422 203 376.666 243.294 376.666 293C376.666 342.706 336.422 383 286.777 383C237.133 383 196.889 342.705 196.889 293C196.889 243.294 237.133 203 286.777 203Z" fill="white"/>
</svg>
