<svg width="1024" height="1024" viewBox="0 0 1024 1024" fill="none" xmlns="http://www.w3.org/2000/svg">
<g clip-path="url(#clip0_45_402)">
<path d="M1024 207H442.502C411.417 153.199 353.32 117 286.777 117C187.489 117 107 197.589 107 297C107 396.411 187.489 477 286.777 477C353.32 477 411.417 440.801 442.502 387H1024V1028H0V821H581.498C612.583 874.801 670.68 911 737.223 911C836.511 911 917 830.411 917 731C917 631.589 836.511 551 737.223 551C670.68 551 612.583 587.199 581.498 641H0V4H1024V207Z" fill="white"/>
<path d="M737.223 641C786.867 641 827.111 681.295 827.111 731C827.111 780.706 786.867 821 737.223 821C687.578 821 647.334 780.706 647.334 731C647.334 681.294 687.579 641 737.223 641Z" fill="white"/>
<path d="M286.777 207C336.422 207 376.666 247.294 376.666 297C376.666 346.706 336.421 387 286.777 387C237.133 387 196.889 346.705 196.889 297C196.889 247.294 237.133 207 286.777 207Z" fill="white"/>
</g>
<defs>
<clipPath id="clip0_45_402">
<rect width="1024" height="1024" fill="white"/>
</clipPath>
</defs>
</svg>
