<svg width="1024" height="1024" viewBox="0 0 1024 1024" fill="none" xmlns="http://www.w3.org/2000/svg">
<path fill-rule="evenodd" clip-rule="evenodd" d="M286.778 117C353.32 117 411.417 153.198 442.502 207H1024V387H442.502C411.417 440.801 353.32 477 286.778 477C187.489 477 107 396.411 107 297C107 197.589 187.489 117 286.778 117ZM286.778 207C237.133 207 196.888 247.294 196.888 297C196.889 346.706 237.133 387 286.778 387C336.422 386.999 376.666 346.706 376.666 297C376.666 247.294 336.422 207 286.778 207Z" fill="white"/>
<path fill-rule="evenodd" clip-rule="evenodd" d="M737.222 911C670.68 911 612.583 874.802 581.498 821L7.86801e-06 821L2.36041e-05 641L581.498 641C612.583 587.199 670.68 551 737.222 551C836.511 551 917 631.589 917 731C917 830.411 836.511 911 737.222 911ZM737.222 821C786.867 821 827.112 780.706 827.112 731C827.112 681.294 786.867 641 737.222 641C687.578 641 647.334 681.294 647.334 731C647.334 780.706 687.578 821 737.222 821Z" fill="white"/>
</svg>
