<svg width="1024" height="1024" viewBox="0 0 1024 1024" fill="none" xmlns="http://www.w3.org/2000/svg">
<path d="M1024 204.8H484.598C449.187 143.586 383.004 102.4 307.2 102.4C194.092 102.4 102.4 194.092 102.4 307.2C102.4 420.308 194.092 512 307.2 512C383.004 512 449.187 470.814 484.598 409.6H1024V1024H0V819.2H539.402C574.813 880.414 640.996 921.6 716.8 921.6C829.908 921.6 921.6 829.908 921.6 716.8C921.6 603.692 829.908 512 716.8 512C640.996 512 574.813 553.186 539.402 614.4H0V0H1024V204.8Z" fill="white"/>
<path d="M716.8 614.4C773.354 614.4 819.2 660.246 819.2 716.8C819.2 773.354 773.354 819.2 716.8 819.2C660.246 819.2 614.4 773.354 614.4 716.8C614.4 660.246 660.246 614.4 716.8 614.4Z" fill="white"/>
<path d="M307.2 204.8C363.754 204.8 409.6 250.646 409.6 307.2C409.6 363.754 363.754 409.6 307.2 409.6C250.646 409.6 204.8 363.754 204.8 307.2C204.8 250.646 250.646 204.8 307.2 204.8Z" fill="white"/>
</svg>
