<svg width="1024" height="1024" viewBox="0 0 1024 1024" fill="none" xmlns="http://www.w3.org/2000/svg">
<path fill-rule="evenodd" clip-rule="evenodd" d="M716.8 511.6C829.908 511.6 921.599 603.292 921.6 716.399C921.6 829.507 829.908 921.199 716.8 921.199C640.996 921.199 574.812 880.014 539.401 818.8H0V614H539.401C574.812 552.786 640.995 511.6 716.8 511.6ZM716.8 614C660.246 614 614.401 659.846 614.4 716.399C614.4 772.953 660.246 818.8 716.8 818.8C773.354 818.8 819.2 772.953 819.2 716.399C819.2 659.846 773.354 614 716.8 614Z" fill="white"/>
<path fill-rule="evenodd" clip-rule="evenodd" d="M307.2 102C383.004 102 449.188 143.185 484.599 204.399H1024V409.199H484.599C449.188 470.413 383.005 511.6 307.2 511.6C194.092 511.6 102.4 419.908 102.4 306.8C102.4 193.692 194.092 102 307.2 102ZM307.2 204.399C250.646 204.399 204.8 250.246 204.8 306.8C204.8 363.354 250.646 409.199 307.2 409.199C363.754 409.199 409.6 363.354 409.6 306.8C409.6 250.246 363.754 204.4 307.2 204.399Z" fill="white"/>
</svg>
