<svg width="1024" height="1024" viewBox="0 0 1024 1024" fill="none" xmlns="http://www.w3.org/2000/svg">
<path fill-rule="evenodd" clip-rule="evenodd" d="M737.223 547C836.511 547 917 627.589 917 727C917 826.411 836.511 907 737.223 907C670.68 907 612.583 870.801 581.498 817H0V637H581.498C612.583 583.199 670.68 547 737.223 547ZM737.223 637C687.578 637 647.334 677.294 647.334 727C647.334 776.706 687.578 817 737.223 817C786.867 817 827.111 776.706 827.111 727C827.111 677.294 786.867 637 737.223 637Z" fill="white"/>
<path fill-rule="evenodd" clip-rule="evenodd" d="M286.777 113C353.32 113 411.417 149.199 442.502 203H1024V383H442.502C411.417 436.801 353.32 473 286.777 473C187.489 473 107 392.411 107 293C107 193.589 187.489 113 286.777 113ZM286.777 203C237.133 203 196.889 243.294 196.889 293C196.889 342.705 237.133 383 286.777 383C336.422 383 376.666 342.706 376.666 293C376.666 243.294 336.422 203 286.777 203Z" fill="white"/>
</svg>
